<?xml version="1.0" encoding="utf-8" standalone="no"?>
<!DOCTYPE svg PUBLIC "-//W3C//DTD SVG 1.1//EN"
  "http://www.w3.org/Graphics/SVG/1.1/DTD/svg11.dtd">
<svg xmlns:xlink="http://www.w3.org/1999/xlink" width="455.316pt" height="215.86pt" viewBox="0 0 455.316 215.86" xmlns="http://www.w3.org/2000/svg" version="1.1">
 <metadata>
  <rdf:RDF xmlns:dc="http://purl.org/dc/elements/1.1/" xmlns:cc="http://creativecommons.org/ns#" xmlns:rdf="http://www.w3.org/1999/02/22-rdf-syntax-ns#">
   <cc:Work>
    <dc:type rdf:resource="http://purl.org/dc/dcmitype/StillImage"/>
    <dc:date>2024-12-26T15:16:12.768159</dc:date>
    <dc:format>image/svg+xml</dc:format>
    <dc:creator>
     <cc:Agent>
      <dc:title>Matplotlib v3.9.3, https://matplotlib.org/</dc:title>
     </cc:Agent>
    </dc:creator>
   </cc:Work>
  </rdf:RDF>
 </metadata>
 <defs>
  <style type="text/css">*{stroke-linejoin: round; stroke-linecap: butt}</style>
 </defs>
 <g id="figure_1">
  <g id="patch_1">
   <path d="M 0 215.86 
L 455.316 215.86 
L 455.316 0 
L 0 0 
z
" style="fill: #ffffff"/>
  </g>
  <g id="axes_1">
   <g id="patch_2">
    <path d="M 51.648 136.48 
C 56.421656 136.48 61.000438 134.583406 64.375922 131.207922 
C 67.751406 127.832438 69.648 123.253656 69.648 118.48 
C 69.648 113.706344 67.751406 109.127562 64.375922 105.752078 
C 61.000438 102.376594 56.421656 100.48 51.648 100.48 
C 46.874344 100.48 42.295562 102.376594 38.920078 105.752078 
C 35.544594 109.127562 33.648 113.706344 33.648 118.48 
C 33.648 123.253656 35.544594 127.832438 38.920078 131.207922 
C 42.295562 134.583406 46.874344 136.48 51.648 136.48 
L 51.648 136.48 
z
" clip-path="url(#p24198c960b)" style="fill: none; stroke: #000000; stroke-width: 2; stroke-linejoin: miter"/>
   </g>
   <g id="patch_3">
    <path d="M 411.648 136.48 
C 416.421656 136.48 421.000438 134.583406 424.375922 131.207922 
C 427.751406 127.832438 429.648 123.253656 429.648 118.48 
C 429.648 113.706344 427.751406 109.127562 424.375922 105.752078 
C 421.000438 102.376594 416.421656 100.48 411.648 100.48 
C 406.874344 100.48 402.295562 102.376594 398.920078 105.752078 
C 395.544594 109.127562 393.648 113.706344 393.648 118.48 
C 393.648 123.253656 395.544594 127.832438 398.920078 131.207922 
C 402.295562 134.583406 406.874344 136.48 411.648 136.48 
L 411.648 136.48 
z
" clip-path="url(#p24198c960b)" style="fill: none; stroke: #000000; stroke-width: 2; stroke-linejoin: miter"/>
   </g>
   <g id="patch_4">
    <path d="M 173.811574 103.609757 
C 172.148759 99.684155 169.991873 96.139441 167.428545 93.119624 
C 164.865216 90.099806 161.930633 87.646341 158.744016 85.858902 
C 155.557399 84.071463 152.162494 82.974589 148.697223 82.612841 
C 145.231952 82.251093 141.743886 82.629438 138.374731 83.732504 
C 135.005576 84.835571 131.801584 86.648216 128.892921 89.096799 
C 125.984258 91.545383 123.410853 94.596291 121.277254 98.125576 
C 119.143656 101.654861 117.479153 105.614074 116.351369 109.842368 
C 115.223584 114.070662 114.648 118.50999 114.648 122.98 
C 114.648 127.45001 115.223584 131.889338 116.351369 136.117632 
C 117.479153 140.345926 119.143656 144.305139 121.277254 147.834424 
C 123.410853 151.363709 125.984258 154.414617 128.892921 156.863201 
C 131.801584 159.311784 135.005576 161.124429 138.374731 162.227496 
C 141.743886 163.330562 145.231952 163.708907 148.697223 163.347159 
C 152.162494 162.985411 155.557399 161.888537 158.744016 160.101098 
C 161.930633 158.313659 164.865216 155.860194 167.428545 152.840376 
C 169.991873 149.820559 172.148759 146.275845 173.811574 142.350243 
" clip-path="url(#p24198c960b)" style="fill: none; stroke: #000000; stroke-width: 2; stroke-linejoin: miter"/>
   </g>
   <g id="patch_5">
    <path d="M 178.288253 111.82979 
L 171.612591 105.217261 
L 173.967946 103.934521 
L 173.795766 103.618366 
L 173.827382 103.601148 
L 173.999562 103.917303 
L 176.354918 102.634562 
z
" clip-path="url(#p24198c960b)" style="stroke: #000000; stroke-linejoin: miter"/>
   </g>
   <g id="patch_6">
    <path d="M 344.811574 103.609757 
C 343.148759 99.684155 340.991873 96.139441 338.428545 93.119624 
C 335.865216 90.099806 332.930633 87.646341 329.744016 85.858902 
C 326.557399 84.071463 323.162494 82.974589 319.697223 82.612841 
C 316.231952 82.251093 312.743886 82.629438 309.374731 83.732504 
C 306.005576 84.835571 302.801584 86.648216 299.892921 89.096799 
C 296.984258 91.545383 294.410853 94.596291 292.277254 98.125576 
C 290.143656 101.654861 288.479153 105.614074 287.351369 109.842368 
C 286.223584 114.070662 285.648 118.50999 285.648 122.98 
C 285.648 127.45001 286.223584 131.889338 287.351369 136.117632 
C 288.479153 140.345926 290.143656 144.305139 292.277254 147.834424 
C 294.410853 151.363709 296.984258 154.414617 299.892921 156.863201 
C 302.801584 159.311784 306.005576 161.124429 309.374731 162.227496 
C 312.743886 163.330562 316.231952 163.708907 319.697223 163.347159 
C 323.162494 162.985411 326.557399 161.888537 329.744016 160.101098 
C 332.930633 158.313659 335.865216 155.860194 338.428545 152.840376 
C 340.991873 149.820559 343.148759 146.275845 344.811574 142.350243 
" clip-path="url(#p24198c960b)" style="fill: none; stroke: #000000; stroke-width: 2; stroke-linejoin: miter"/>
   </g>
   <g id="patch_7">
    <path d="M 349.288253 111.82979 
L 342.612591 105.217261 
L 344.967946 103.934521 
L 344.795766 103.618366 
L 344.827382 103.601148 
L 344.999562 103.917303 
L 347.354918 102.634562 
z
" clip-path="url(#p24198c960b)" style="stroke: #000000; stroke-linejoin: miter"/>
   </g>
   <g id="line2d_1">
    <path d="M 51.648 208.48 
L 51.648 136.48 
L 51.648 136.48 
M 51.648 100.48 
L 51.648 100.48 
L 51.648 28.48 
" clip-path="url(#p24198c960b)" style="fill: none; stroke: #000000; stroke-width: 2; stroke-linecap: round"/>
   </g>
   <g id="line2d_2">
    <path d="M 55.248 127.48 
L 48.048 127.48 
" clip-path="url(#p24198c960b)" style="fill: none; stroke: #000000; stroke-width: 2; stroke-linecap: round"/>
   </g>
   <g id="line2d_3">
    <path d="M 51.648 113.08 
L 51.648 105.88 
" clip-path="url(#p24198c960b)" style="fill: none; stroke: #000000; stroke-width: 2; stroke-linecap: round"/>
   </g>
   <g id="line2d_4">
    <path d="M 55.248 109.48 
L 48.048 109.48 
" clip-path="url(#p24198c960b)" style="fill: none; stroke: #000000; stroke-width: 2; stroke-linecap: round"/>
   </g>
   <g id="line2d_5">
    <path d="M 51.648 28.48 
L 123.648 28.48 
L 126.648 19.48 
L 132.648 37.48 
L 138.648 19.48 
L 144.648 37.48 
L 150.648 19.48 
L 156.648 37.48 
L 159.648 28.48 
L 231.648 28.48 
" clip-path="url(#p24198c960b)" style="fill: none; stroke: #000000; stroke-width: 2; stroke-linecap: round"/>
   </g>
   <g id="line2d_6">
    <path d="M 231.648 28.48 
L 231.648 100.48 
L 240.648 103.48 
L 222.648 109.48 
L 240.648 115.48 
L 222.648 121.48 
L 240.648 127.48 
L 222.648 133.48 
L 231.648 136.48 
L 231.648 208.48 
" clip-path="url(#p24198c960b)" style="fill: none; stroke: #000000; stroke-width: 2; stroke-linecap: round"/>
   </g>
   <g id="line2d_7">
    <path d="M 231.648 28.48 
L 321.648 28.48 
L 411.648 28.48 
" clip-path="url(#p24198c960b)" style="fill: none; stroke: #000000; stroke-width: 2; stroke-linecap: round"/>
   </g>
   <g id="line2d_8">
    <path d="M 411.648 28.48 
L 411.648 100.48 
L 411.648 100.48 
M 411.648 136.48 
L 411.648 136.48 
L 411.648 208.48 
" clip-path="url(#p24198c960b)" style="fill: none; stroke: #000000; stroke-width: 2; stroke-linecap: round"/>
   </g>
   <g id="line2d_9">
    <path d="M 411.648 109.48 
L 411.648 118.48 
" clip-path="url(#p24198c960b)" style="fill: none; stroke: #000000; stroke-width: 2; stroke-linecap: round"/>
   </g>
   <g id="patch_8">
    <path d="M 414.348 118.48 
L 411.648 127.48 
L 408.948 118.48 
z
" clip-path="url(#p24198c960b)"/>
   </g>
   <g id="line2d_10">
    <path d="M 411.648 208.48 
L 231.648 208.48 
L 51.648 208.48 
" clip-path="url(#p24198c960b)" style="fill: none; stroke: #000000; stroke-width: 2; stroke-linecap: round"/>
   </g>
   <g id="text_1">
    <!-- 20V -->
    <g transform="translate(2.656125 122.343125) scale(0.14 -0.14)">
     <defs>
      <path id="DejaVuSans-32" d="M 1228 531 
L 3431 531 
L 3431 0 
L 469 0 
L 469 531 
Q 828 903 1448 1529 
Q 2069 2156 2228 2338 
Q 2531 2678 2651 2914 
Q 2772 3150 2772 3378 
Q 2772 3750 2511 3984 
Q 2250 4219 1831 4219 
Q 1534 4219 1204 4116 
Q 875 4013 500 3803 
L 500 4441 
Q 881 4594 1212 4672 
Q 1544 4750 1819 4750 
Q 2544 4750 2975 4387 
Q 3406 4025 3406 3419 
Q 3406 3131 3298 2873 
Q 3191 2616 2906 2266 
Q 2828 2175 2409 1742 
Q 1991 1309 1228 531 
z
" transform="scale(0.015625)"/>
      <path id="DejaVuSans-30" d="M 2034 4250 
Q 1547 4250 1301 3770 
Q 1056 3291 1056 2328 
Q 1056 1369 1301 889 
Q 1547 409 2034 409 
Q 2525 409 2770 889 
Q 3016 1369 3016 2328 
Q 3016 3291 2770 3770 
Q 2525 4250 2034 4250 
z
M 2034 4750 
Q 2819 4750 3233 4129 
Q 3647 3509 3647 2328 
Q 3647 1150 3233 529 
Q 2819 -91 2034 -91 
Q 1250 -91 836 529 
Q 422 1150 422 2328 
Q 422 3509 836 4129 
Q 1250 4750 2034 4750 
z
" transform="scale(0.015625)"/>
      <path id="DejaVuSans-56" d="M 1831 0 
L 50 4666 
L 709 4666 
L 2188 738 
L 3669 4666 
L 4325 4666 
L 2547 0 
L 1831 0 
z
" transform="scale(0.015625)"/>
     </defs>
     <use xlink:href="#DejaVuSans-32"/>
     <use xlink:href="#DejaVuSans-30" x="63.623047"/>
     <use xlink:href="#DejaVuSans-56" x="127.246094"/>
    </g>
   </g>
   <g id="text_2">
    <!-- 400Ω -->
    <g transform="translate(122.937219 12.968437) scale(0.14 -0.14)">
     <defs>
      <path id="DejaVuSans-34" d="M 2419 4116 
L 825 1625 
L 2419 1625 
L 2419 4116 
z
M 2253 4666 
L 3047 4666 
L 3047 1625 
L 3713 1625 
L 3713 1100 
L 3047 1100 
L 3047 0 
L 2419 0 
L 2419 1100 
L 313 1100 
L 313 1709 
L 2253 4666 
z
" transform="scale(0.015625)"/>
      <path id="DejaVuSans-3a9" d="M 4647 556 
L 4647 0 
L 2772 0 
L 2772 556 
Q 3325 859 3634 1378 
Q 3944 1897 3944 2528 
Q 3944 3278 3531 3731 
Q 3119 4184 2444 4184 
Q 1769 4184 1355 3729 
Q 941 3275 941 2528 
Q 941 1897 1250 1378 
Q 1563 859 2119 556 
L 2119 0 
L 244 0 
L 244 556 
L 1241 556 
Q 747 991 519 1456 
Q 294 1922 294 2497 
Q 294 3491 894 4106 
Q 1491 4722 2444 4722 
Q 3391 4722 3994 4106 
Q 4594 3494 4594 2528 
Q 4594 1922 4372 1459 
Q 4150 997 3647 556 
L 4647 556 
z
" transform="scale(0.015625)"/>
     </defs>
     <use xlink:href="#DejaVuSans-34"/>
     <use xlink:href="#DejaVuSans-30" x="63.623047"/>
     <use xlink:href="#DejaVuSans-30" x="127.246094"/>
     <use xlink:href="#DejaVuSans-3a9" x="190.869141"/>
    </g>
   </g>
   <g id="text_3">
    <!-- 100Ω -->
    <g transform="translate(247.159562 99.769219) rotate(-270) scale(0.14 -0.14)">
     <defs>
      <path id="DejaVuSans-31" d="M 794 531 
L 1825 531 
L 1825 4091 
L 703 3866 
L 703 4441 
L 1819 4666 
L 2450 4666 
L 2450 531 
L 3481 531 
L 3481 0 
L 794 0 
L 794 531 
z
" transform="scale(0.015625)"/>
     </defs>
     <use xlink:href="#DejaVuSans-31"/>
     <use xlink:href="#DejaVuSans-30" x="63.623047"/>
     <use xlink:href="#DejaVuSans-30" x="127.246094"/>
     <use xlink:href="#DejaVuSans-3a9" x="190.869141"/>
    </g>
   </g>
   <g id="text_4">
    <!-- 1A -->
    <g transform="translate(433.248 122.343125) scale(0.14 -0.14)">
     <defs>
      <path id="DejaVuSans-41" d="M 2188 4044 
L 1331 1722 
L 3047 1722 
L 2188 4044 
z
M 1831 4666 
L 2547 4666 
L 4325 0 
L 3669 0 
L 3244 1197 
L 1141 1197 
L 716 0 
L 50 0 
L 1831 4666 
z
" transform="scale(0.015625)"/>
     </defs>
     <use xlink:href="#DejaVuSans-31"/>
     <use xlink:href="#DejaVuSans-41" x="63.623047"/>
    </g>
   </g>
   <g id="text_5">
    <!-- $I_1$ -->
    <g transform="translate(140.758 126.843125) scale(0.14 -0.14)">
     <defs>
      <path id="DejaVuSans-Oblique-49" d="M 1081 4666 
L 1716 4666 
L 806 0 
L 172 0 
L 1081 4666 
z
" transform="scale(0.015625)"/>
     </defs>
     <use xlink:href="#DejaVuSans-Oblique-49" transform="translate(0 0.09375)"/>
     <use xlink:href="#DejaVuSans-31" transform="translate(29.492188 -16.3125) scale(0.7)"/>
    </g>
   </g>
   <g id="text_6">
    <!-- $I_2$ -->
    <g transform="translate(311.758 126.843125) scale(0.14 -0.14)">
     <use xlink:href="#DejaVuSans-Oblique-49" transform="translate(0 0.09375)"/>
     <use xlink:href="#DejaVuSans-32" transform="translate(29.492188 -16.3125) scale(0.7)"/>
    </g>
   </g>
   <g id="patch_9">
    <path d="M 231.648 31.18 
C 232.364048 31.18 233.050866 30.895511 233.557188 30.389188 
C 234.063511 29.882866 234.348 29.196048 234.348 28.48 
C 234.348 27.763952 234.063511 27.077134 233.557188 26.570812 
C 233.050866 26.064489 232.364048 25.78 231.648 25.78 
C 230.931952 25.78 230.245134 26.064489 229.738812 26.570812 
C 229.232489 27.077134 228.948 27.763952 228.948 28.48 
C 228.948 29.196048 229.232489 29.882866 229.738812 30.389188 
C 230.245134 30.895511 230.931952 31.18 231.648 31.18 
z
" clip-path="url(#p24198c960b)" style="stroke: #000000; stroke-width: 2; stroke-linejoin: miter"/>
   </g>
   <g id="patch_10">
    <path d="M 231.648 211.18 
C 232.364048 211.18 233.050866 210.895511 233.557188 210.389188 
C 234.063511 209.882866 234.348 209.196048 234.348 208.48 
C 234.348 207.763952 234.063511 207.077134 233.557188 206.570812 
C 233.050866 206.064489 232.364048 205.78 231.648 205.78 
C 230.931952 205.78 230.245134 206.064489 229.738812 206.570812 
C 229.232489 207.077134 228.948 207.763952 228.948 208.48 
C 228.948 209.196048 229.232489 209.882866 229.738812 210.389188 
C 230.245134 210.895511 230.931952 211.18 231.648 211.18 
z
" clip-path="url(#p24198c960b)" style="stroke: #000000; stroke-width: 2; stroke-linejoin: miter"/>
   </g>
  </g>
 </g>
 <defs>
  <clipPath id="p24198c960b">
   <rect x="0" y="0" width="455.316" height="215.86"/>
  </clipPath>
 </defs>
</svg>
